<svg width="75" height="70" viewBox="0 0 75 70" fill="none" xmlns="http://www.w3.org/2000/svg">
<g clip-path="url(#clip0_11_5)">
<path d="M74.0319 24.9999L20.1593 45.7666C15.6919 47.4777 11.9394 48.3361 8.90485 48.3361C5.46839 48.3361 2.97389 47.2472 1.42748 45.0666C0.454837 43.6666 0.169488 41.8916 0.568363 39.7388C0.967238 37.5861 2.02886 35.2944 3.74709 32.8555C5.17997 30.8833 7.52719 28.2916 10.7949 25.0777C9.68653 26.6573 8.87377 28.3918 8.38938 30.211C7.53026 33.5305 8.30347 35.9666 10.709 37.5222C11.8535 38.2472 13.4275 38.611 15.4341 38.611C17.0358 38.611 18.8399 38.3777 20.8465 37.911L74.0319 24.9999Z" fill="white"/>
</g>
<defs>
<clipPath id="clip0_11_5">
<rect width="74" height="70" fill="white" transform="translate(0.393311)"/>
</clipPath>
</defs>
</svg>
